<svg xmlns="http://www.w3.org/2000/svg" xmlns:xlink="http://www.w3.org/1999/xlink" contentStyleType="text/css" data-diagram-type="CLASS" height="595px" preserveAspectRatio="none" style="width:818px;height:595px;background:#FFFFFF;" version="1.1" viewBox="0 0 818 595" width="818px" zoomAndPan="magnify"><defs/><g><!--class ShapeVisitor--><g class="entity" data-entity="ShapeVisitor" data-source-line="2" data-uid="ent0002" id="entity_ShapeVisitor"><rect fill="#F1F1F1" height="96.8906" rx="2.5" ry="2.5" style="stroke:#181818;stroke-width:0.5;" width="223.6133" x="12.28" y="31.44"/><ellipse cx="75.6867" cy="47.44" fill="#B4A7E5" rx="11" ry="11" style="stroke:#181818;stroke-width:1;"/><path d="M71.6086,43.2056 L71.6086,41.0494 L78.9992,41.0494 L78.9992,43.2056 L76.5305,43.2056 L76.5305,51.2837 L78.9992,51.2837 L78.9992,53.44 L71.6086,53.44 L71.6086,51.2837 L74.0774,51.2837 L74.0774,43.2056 L71.6086,43.2056 Z " fill="#000000"/><text fill="#000000" font-family="sans-serif" font-size="14" font-style="italic" lengthAdjust="spacing" textLength="88.2998" x="96.1867" y="52.2867">ShapeVisitor</text><line style="stroke:#181818;stroke-width:0.5;" x1="13.28" x2="234.8933" y1="63.44" y2="63.44"/><line style="stroke:#181818;stroke-width:0.5;" x1="13.28" x2="234.8933" y1="71.44" y2="71.44"/><text fill="#000000" font-family="sans-serif" font-size="14" lengthAdjust="spacing" textLength="132.6787" x="18.28" y="88.4351">visit(const Circle&amp;)</text><text fill="#000000" font-family="sans-serif" font-size="14" lengthAdjust="spacing" textLength="163.4268" x="18.28" y="104.732">visit(const Rectangle&amp;)</text><text fill="#000000" font-family="sans-serif" font-size="14" lengthAdjust="spacing" textLength="211.6133" x="18.28" y="121.0289">visit(const CompositeShape&amp;)</text></g><!--class Point--><g class="entity" data-entity="Point" data-source-line="8" data-uid="ent0003" id="entity_Point"><rect fill="#F1F1F1" height="64.2969" rx="2.5" ry="2.5" style="stroke:#181818;stroke-width:0.5;" width="67.2598" x="270.46" y="47.74"/><ellipse cx="285.46" cy="63.74" fill="#ADD1B2" rx="11" ry="11" style="stroke:#181818;stroke-width:1;"/><path d="M288.4288,69.3806 Q287.8506,69.6775 287.21,69.8181 Q286.5694,69.9744 285.8663,69.9744 Q283.3663,69.9744 282.0381,68.3338 Q280.7256,66.6775 280.7256,63.5525 Q280.7256,60.4275 282.0381,58.7713 Q283.3663,57.115 285.8663,57.115 Q286.5694,57.115 287.21,57.2713 Q287.8663,57.4275 288.4288,57.7244 L288.4288,60.4431 Q287.8038,59.865 287.21,59.5994 Q286.6163,59.3181 285.9913,59.3181 Q284.6475,59.3181 283.96,60.3963 Q283.2725,61.4588 283.2725,63.5525 Q283.2725,65.6463 283.96,66.7244 Q284.6475,67.7869 285.9913,67.7869 Q286.6163,67.7869 287.21,67.5213 Q287.8038,67.24 288.4288,66.6619 L288.4288,69.3806 Z " fill="#000000"/><text fill="#000000" font-family="sans-serif" font-size="14" lengthAdjust="spacing" textLength="35.2598" x="299.46" y="68.5867">Point</text><line style="stroke:#181818;stroke-width:0.5;" x1="271.46" x2="336.7198" y1="79.74" y2="79.74"/><text fill="#000000" font-family="sans-serif" font-size="14" lengthAdjust="spacing" textLength="13.3506" x="276.46" y="96.7351">...</text><line style="stroke:#181818;stroke-width:0.5;" x1="271.46" x2="336.7198" y1="104.0369" y2="104.0369"/></g><!--class Rect--><g class="entity" data-entity="Rect" data-source-line="12" data-uid="ent0004" id="entity_Rect"><rect fill="#F1F1F1" height="64.2969" rx="2.5" ry="2.5" style="stroke:#181818;stroke-width:0.5;" width="63.5273" x="372.33" y="47.74"/><ellipse cx="387.33" cy="63.74" fill="#ADD1B2" rx="11" ry="11" style="stroke:#181818;stroke-width:1;"/><path d="M390.2988,69.3806 Q389.7206,69.6775 389.08,69.8181 Q388.4394,69.9744 387.7363,69.9744 Q385.2363,69.9744 383.9081,68.3338 Q382.5956,66.6775 382.5956,63.5525 Q382.5956,60.4275 383.9081,58.7713 Q385.2363,57.115 387.7363,57.115 Q388.4394,57.115 389.08,57.2713 Q389.7363,57.4275 390.2988,57.7244 L390.2988,60.4431 Q389.6738,59.865 389.08,59.5994 Q388.4863,59.3181 387.8613,59.3181 Q386.5175,59.3181 385.83,60.3963 Q385.1425,61.4588 385.1425,63.5525 Q385.1425,65.6463 385.83,66.7244 Q386.5175,67.7869 387.8613,67.7869 Q388.4863,67.7869 389.08,67.5213 Q389.6738,67.24 390.2988,66.6619 L390.2988,69.3806 Z " fill="#000000"/><text fill="#000000" font-family="sans-serif" font-size="14" lengthAdjust="spacing" textLength="31.5273" x="401.33" y="68.5867">Rect</text><line style="stroke:#181818;stroke-width:0.5;" x1="373.33" x2="434.8573" y1="79.74" y2="79.74"/><text fill="#000000" font-family="sans-serif" font-size="14" lengthAdjust="spacing" textLength="13.3506" x="378.33" y="96.7351">...</text><line style="stroke:#181818;stroke-width:0.5;" x1="373.33" x2="434.8573" y1="104.0369" y2="104.0369"/></g><!--class Shape--><g class="entity" data-entity="Shape" data-source-line="18" data-uid="ent0005" id="entity_Shape"><rect fill="#F1F1F1" height="129.4844" rx="2.5" ry="2.5" style="stroke:#181818;stroke-width:0.5;" width="205.8809" x="484.15" y="212.78"/><ellipse cx="560.921" cy="228.78" fill="#A9DCDF" rx="11" ry="11" style="stroke:#181818;stroke-width:1;"/><path d="M561.0304,224.1237 L559.8741,229.2019 L562.2022,229.2019 L561.0304,224.1237 Z M559.546,221.8894 L562.5304,221.8894 L565.8897,234.28 L563.4366,234.28 L562.671,231.2175 L559.3897,231.2175 L558.6397,234.28 L556.2022,234.28 L559.546,221.8894 Z " fill="#000000"/><text fill="#000000" font-family="sans-serif" font-size="14" font-style="italic" lengthAdjust="spacing" textLength="43.8389" x="581.421" y="233.6267">Shape</text><line style="stroke:#181818;stroke-width:0.5;" x1="485.15" x2="689.0309" y1="244.78" y2="244.78"/><line style="stroke:#181818;stroke-width:0.5;" x1="485.15" x2="689.0309" y1="252.78" y2="252.78"/><text fill="#000000" font-family="sans-serif" font-size="14" lengthAdjust="spacing" textLength="193.8809" x="490.15" y="269.7751">accept(saver: ShapeVisitor)</text><text fill="#000000" font-family="sans-serif" font-size="14" lengthAdjust="spacing" textLength="139.8223" x="490.15" y="286.072">move(p: int, dy: int)</text><text fill="#000000" font-family="sans-serif" font-size="14" lengthAdjust="spacing" textLength="156.3584" x="490.15" y="302.3689">move(const Point &amp; p)</text><text fill="#000000" font-family="sans-serif" font-size="14" lengthAdjust="spacing" textLength="119.2461" x="490.15" y="318.6657">getFrame(): Rect</text><text fill="#000000" font-family="sans-serif" font-size="14" lengthAdjust="spacing" textLength="108.5684" x="490.15" y="334.9626">clone(): Shape*</text></g><!--class Circle--><g class="entity" data-entity="Circle" data-source-line="27" data-uid="ent0006" id="entity_Circle"><rect fill="#F1F1F1" height="145.7813" rx="2.5" ry="2.5" style="stroke:#181818;stroke-width:0.5;" width="205.8809" x="123.15" y="422.56"/><ellipse cx="202.0299" cy="438.56" fill="#ADD1B2" rx="11" ry="11" style="stroke:#181818;stroke-width:1;"/><path d="M204.9986,444.2006 Q204.4205,444.4975 203.7799,444.6381 Q203.1393,444.7944 202.4361,444.7944 Q199.9361,444.7944 198.608,443.1537 Q197.2955,441.4975 197.2955,438.3725 Q197.2955,435.2475 198.608,433.5912 Q199.9361,431.935 202.4361,431.935 Q203.1393,431.935 203.7799,432.0912 Q204.4361,432.2475 204.9986,432.5444 L204.9986,435.2631 Q204.3736,434.685 203.7799,434.4194 Q203.1861,434.1381 202.5611,434.1381 Q201.2174,434.1381 200.5299,435.2162 Q199.8424,436.2787 199.8424,438.3725 Q199.8424,440.4662 200.5299,441.5444 Q201.2174,442.6069 202.5611,442.6069 Q203.1861,442.6069 203.7799,442.3412 Q204.3736,442.06 204.9986,441.4819 L204.9986,444.2006 Z " fill="#000000"/><text fill="#000000" font-family="sans-serif" font-size="14" lengthAdjust="spacing" textLength="39.6211" x="222.5299" y="443.4067">Circle</text><line style="stroke:#181818;stroke-width:0.5;" x1="124.15" x2="328.0309" y1="454.56" y2="454.56"/><text fill="#000000" font-family="sans-serif" font-size="14" lengthAdjust="spacing" textLength="181.4873" x="129.15" y="471.5551">&#1079;&#1076;&#1077;&#1079;&#1100; &#1074;&#1072;&#1096;&#1080; &#1087;&#1077;&#1088;&#1077;&#1084;&#1077;&#1085;&#1085;&#1099;&#1077;</text><line style="stroke:#181818;stroke-width:0.5;" x1="124.15" x2="328.0309" y1="478.8569" y2="478.8569"/><text fill="#000000" font-family="sans-serif" font-size="14" lengthAdjust="spacing" textLength="193.8809" x="129.15" y="495.852">accept(saver: ShapeVisitor)</text><text fill="#000000" font-family="sans-serif" font-size="14" lengthAdjust="spacing" textLength="148.1074" x="129.15" y="512.1489">move(dx: int, dy: int)</text><text fill="#000000" font-family="sans-serif" font-size="14" lengthAdjust="spacing" textLength="119.2461" x="129.15" y="528.4457">getFrame(): Rect</text><text fill="#000000" font-family="sans-serif" font-size="14" lengthAdjust="spacing" textLength="104.3506" x="129.15" y="544.7426">clone(): Circle*</text><text fill="#000000" font-family="sans-serif" font-size="14" lengthAdjust="spacing" textLength="153.5693" x="129.15" y="561.0395">&#1086;&#1089;&#1090;&#1072;&#1083;&#1100;&#1085;&#1099;&#1077;_&#1084;&#1077;&#1090;&#1086;&#1076;&#1099;()</text></g><!--class Rectangle--><g class="entity" data-entity="Rectangle" data-source-line="36" data-uid="ent0007" id="entity_Rectangle"><rect fill="#F1F1F1" height="145.7813" rx="2.5" ry="2.5" style="stroke:#181818;stroke-width:0.5;" width="205.8809" x="364.15" y="422.56"/><ellipse cx="427.6559" cy="438.56" fill="#ADD1B2" rx="11" ry="11" style="stroke:#181818;stroke-width:1;"/><path d="M430.6246,444.2006 Q430.0465,444.4975 429.4059,444.6381 Q428.7652,444.7944 428.0621,444.7944 Q425.5621,444.7944 424.234,443.1537 Q422.9215,441.4975 422.9215,438.3725 Q422.9215,435.2475 424.234,433.5912 Q425.5621,431.935 428.0621,431.935 Q428.7652,431.935 429.4059,432.0912 Q430.0621,432.2475 430.6246,432.5444 L430.6246,435.2631 Q429.9996,434.685 429.4059,434.4194 Q428.8121,434.1381 428.1871,434.1381 Q426.8434,434.1381 426.1559,435.2162 Q425.4684,436.2787 425.4684,438.3725 Q425.4684,440.4662 426.1559,441.5444 Q426.8434,442.6069 428.1871,442.6069 Q428.8121,442.6069 429.4059,442.3412 Q429.9996,442.06 430.6246,441.4819 L430.6246,444.2006 Z " fill="#000000"/><text fill="#000000" font-family="sans-serif" font-size="14" lengthAdjust="spacing" textLength="70.3691" x="448.1559" y="443.4067">Rectangle</text><line style="stroke:#181818;stroke-width:0.5;" x1="365.15" x2="569.0309" y1="454.56" y2="454.56"/><text fill="#000000" font-family="sans-serif" font-size="14" lengthAdjust="spacing" textLength="181.4873" x="370.15" y="471.5551">&#1079;&#1076;&#1077;&#1079;&#1100; &#1074;&#1072;&#1096;&#1080; &#1087;&#1077;&#1088;&#1077;&#1084;&#1077;&#1085;&#1085;&#1099;&#1077;</text><line style="stroke:#181818;stroke-width:0.5;" x1="365.15" x2="569.0309" y1="478.8569" y2="478.8569"/><text fill="#000000" font-family="sans-serif" font-size="14" lengthAdjust="spacing" textLength="193.8809" x="370.15" y="495.852">accept(saver: ShapeVisitor)</text><text fill="#000000" font-family="sans-serif" font-size="14" lengthAdjust="spacing" textLength="148.1074" x="370.15" y="512.1489">move(dx: int, dy: int)</text><text fill="#000000" font-family="sans-serif" font-size="14" lengthAdjust="spacing" textLength="119.2461" x="370.15" y="528.4457">getFrame(): Rect</text><text fill="#000000" font-family="sans-serif" font-size="14" lengthAdjust="spacing" textLength="135.0986" x="370.15" y="544.7426">clone(): Rectangle*</text><text fill="#000000" font-family="sans-serif" font-size="14" lengthAdjust="spacing" textLength="153.5693" x="370.15" y="561.0395">&#1086;&#1089;&#1090;&#1072;&#1083;&#1100;&#1085;&#1099;&#1077;_&#1084;&#1077;&#1090;&#1086;&#1076;&#1099;()</text></g><!--class CompositeShape--><g class="entity" data-entity="CompositeShape" data-source-line="46" data-uid="ent0008" id="entity_CompositeShape"><rect fill="#F1F1F1" height="186.375" rx="2.5" ry="2.5" style="stroke:#181818;stroke-width:0.5;" width="205.8809" x="605.15" y="402.26"/><ellipse cx="645.0463" cy="418.26" fill="#ADD1B2" rx="11" ry="11" style="stroke:#181818;stroke-width:1;"/><path d="M648.0151,423.9006 Q647.437,424.1975 646.7963,424.3381 Q646.1557,424.4944 645.4526,424.4944 Q642.9526,424.4944 641.6245,422.8538 Q640.312,421.1975 640.312,418.0725 Q640.312,414.9475 641.6245,413.2913 Q642.9526,411.635 645.4526,411.635 Q646.1557,411.635 646.7963,411.7913 Q647.4526,411.9475 648.0151,412.2444 L648.0151,414.9631 Q647.3901,414.385 646.7963,414.1194 Q646.2026,413.8381 645.5776,413.8381 Q644.2338,413.8381 643.5463,414.9163 Q642.8588,415.9788 642.8588,418.0725 Q642.8588,420.1663 643.5463,421.2444 Q644.2338,422.3069 645.5776,422.3069 Q646.2026,422.3069 646.7963,422.0413 Q647.3901,421.76 648.0151,421.1819 L648.0151,423.9006 Z " fill="#000000"/><text fill="#000000" font-family="sans-serif" font-size="14" lengthAdjust="spacing" textLength="118.5557" x="664.5789" y="423.1067">CompositeShape</text><line style="stroke:#181818;stroke-width:0.5;" x1="606.15" x2="810.0309" y1="434.26" y2="434.26"/><text fill="#000000" font-family="sans-serif" font-size="14" lengthAdjust="spacing" textLength="177.4131" x="611.15" y="451.2551">shapes: vector&lt;Shape*&gt;</text><text fill="#000000" font-family="sans-serif" font-size="14" lengthAdjust="spacing" textLength="181.4873" x="611.15" y="467.552">&#1079;&#1076;&#1077;&#1079;&#1100; &#1074;&#1072;&#1096;&#1080; &#1087;&#1077;&#1088;&#1077;&#1084;&#1077;&#1085;&#1085;&#1099;&#1077;</text><line style="stroke:#181818;stroke-width:1;" x1="606.15" x2="810.0309" y1="474.8538" y2="474.8538"/><text fill="#000000" font-family="sans-serif" font-size="14" lengthAdjust="spacing" textLength="193.8809" x="611.15" y="491.8489">accept(saver: ShapeVisitor)</text><text fill="#000000" font-family="sans-serif" font-size="14" lengthAdjust="spacing" textLength="148.1074" x="611.15" y="508.1457">move(dx: int, dy: int)</text><text fill="#000000" font-family="sans-serif" font-size="14" lengthAdjust="spacing" textLength="119.2461" x="611.15" y="524.4426">getFrame(): Rect</text><text fill="#000000" font-family="sans-serif" font-size="14" lengthAdjust="spacing" textLength="183.2852" x="611.15" y="540.7395">clone(): CompositeShape*</text><text fill="#000000" font-family="sans-serif" font-size="14" lengthAdjust="spacing" textLength="183.3672" x="611.15" y="557.0364">addShape(shape: Shape*)</text><line style="stroke:#181818;stroke-width:1;" x1="606.15" x2="810.0309" y1="564.3381" y2="564.3381"/><text fill="#000000" font-family="sans-serif" font-size="14" lengthAdjust="spacing" textLength="153.5693" x="611.15" y="581.3332">&#1086;&#1089;&#1090;&#1072;&#1083;&#1100;&#1085;&#1099;&#1077;_&#1084;&#1077;&#1090;&#1086;&#1076;&#1099;()</text></g><!--class ShapeContainer--><g class="entity" data-entity="ShapeContainer" data-source-line="60" data-uid="ent0009" id="entity_ShapeContainer"><rect fill="#F1F1F1" height="145.7813" rx="2.5" ry="2.5" style="stroke:#181818;stroke-width:0.5;" width="233.252" x="470.46" y="7"/><ellipse cx="526.7095" cy="23" fill="#ADD1B2" rx="11" ry="11" style="stroke:#181818;stroke-width:1;"/><path d="M529.6783,28.6406 Q529.1001,28.9375 528.4595,29.0781 Q527.8189,29.2344 527.1158,29.2344 Q524.6158,29.2344 523.2876,27.5938 Q521.9751,25.9375 521.9751,22.8125 Q521.9751,19.6875 523.2876,18.0313 Q524.6158,16.375 527.1158,16.375 Q527.8189,16.375 528.4595,16.5313 Q529.1158,16.6875 529.6783,16.9844 L529.6783,19.7031 Q529.0533,19.125 528.4595,18.8594 Q527.8658,18.5781 527.2408,18.5781 Q525.897,18.5781 525.2095,19.6563 Q524.522,20.7188 524.522,22.8125 Q524.522,24.9063 525.2095,25.9844 Q525.897,27.0469 527.2408,27.0469 Q527.8658,27.0469 528.4595,26.7813 Q529.0533,26.5 529.6783,25.9219 L529.6783,28.6406 Z " fill="#000000"/><text fill="#000000" font-family="sans-serif" font-size="14" lengthAdjust="spacing" textLength="112.2529" x="547.2095" y="27.8467">ShapeContainer</text><line style="stroke:#181818;stroke-width:0.5;" x1="471.46" x2="702.712" y1="39" y2="39"/><text fill="#000000" font-family="sans-serif" font-size="14" lengthAdjust="spacing" textLength="177.4131" x="476.46" y="55.9951">shapes: vector&lt;Shape*&gt;</text><text fill="#000000" font-family="sans-serif" font-size="14" lengthAdjust="spacing" textLength="149.1533" x="476.46" y="72.292">&#1080; &#1074;&#1072;&#1096;&#1080; &#1087;&#1077;&#1088;&#1077;&#1084;&#1077;&#1085;&#1085;&#1099;&#1077;</text><line style="stroke:#181818;stroke-width:0.5;" x1="471.46" x2="702.712" y1="79.5938" y2="79.5938"/><text fill="#000000" font-family="sans-serif" font-size="14" lengthAdjust="spacing" textLength="183.3672" x="476.46" y="96.5889">addShape(shape: Shape*)</text><text fill="#000000" font-family="sans-serif" font-size="14" lengthAdjust="spacing" textLength="174.2002" x="476.46" y="112.8857">removeShape(index: int)</text><text fill="#000000" font-family="sans-serif" font-size="14" lengthAdjust="spacing" textLength="119.2461" x="476.46" y="129.1826">getFrame(): Rect</text><text fill="#000000" font-family="sans-serif" font-size="14" lengthAdjust="spacing" textLength="221.252" x="476.46" y="145.4795">saveToFile(saver: ShapeVisitor)</text></g><!--class SvgSaver--><g class="entity" data-entity="SvgSaver" data-source-line="70" data-uid="ent0010" id="entity_SvgSaver"><rect fill="#F1F1F1" height="64.2969" rx="2.5" ry="2.5" style="stroke:#181818;stroke-width:0.5;" width="98.1787" x="7" y="245.37"/><ellipse cx="22" cy="261.37" fill="#ADD1B2" rx="11" ry="11" style="stroke:#181818;stroke-width:1;"/><path d="M24.9688,267.0106 Q24.3906,267.3075 23.75,267.4481 Q23.1094,267.6044 22.4063,267.6044 Q19.9063,267.6044 18.5781,265.9638 Q17.2656,264.3075 17.2656,261.1825 Q17.2656,258.0575 18.5781,256.4013 Q19.9063,254.745 22.4063,254.745 Q23.1094,254.745 23.75,254.9013 Q24.4063,255.0575 24.9688,255.3544 L24.9688,258.0731 Q24.3438,257.495 23.75,257.2294 Q23.1563,256.9481 22.5313,256.9481 Q21.1875,256.9481 20.5,258.0263 Q19.8125,259.0888 19.8125,261.1825 Q19.8125,263.2763 20.5,264.3544 Q21.1875,265.4169 22.5313,265.4169 Q23.1563,265.4169 23.75,265.1513 Q24.3438,264.87 24.9688,264.2919 L24.9688,267.0106 Z " fill="#000000"/><text fill="#000000" font-family="sans-serif" font-size="14" lengthAdjust="spacing" textLength="66.1787" x="36" y="266.2167">SvgSaver</text><line style="stroke:#181818;stroke-width:0.5;" x1="8" x2="104.1787" y1="277.37" y2="277.37"/><text fill="#000000" font-family="sans-serif" font-size="14" lengthAdjust="spacing" textLength="13.3506" x="13" y="294.3651">...</text><line style="stroke:#181818;stroke-width:0.5;" x1="8" x2="104.1787" y1="301.6669" y2="301.6669"/></g><!--class BmpSaver--><g class="entity" data-entity="BmpSaver" data-source-line="74" data-uid="ent0011" id="entity_BmpSaver"><rect fill="#F1F1F1" height="64.2969" rx="2.5" ry="2.5" style="stroke:#181818;stroke-width:0.5;" width="104.249" x="139.96" y="245.37"/><ellipse cx="154.96" cy="261.37" fill="#ADD1B2" rx="11" ry="11" style="stroke:#181818;stroke-width:1;"/><path d="M157.9288,267.0106 Q157.3506,267.3075 156.71,267.4481 Q156.0694,267.6044 155.3663,267.6044 Q152.8663,267.6044 151.5381,265.9638 Q150.2256,264.3075 150.2256,261.1825 Q150.2256,258.0575 151.5381,256.4013 Q152.8663,254.745 155.3663,254.745 Q156.0694,254.745 156.71,254.9013 Q157.3663,255.0575 157.9288,255.3544 L157.9288,258.0731 Q157.3038,257.495 156.71,257.2294 Q156.1163,256.9481 155.4913,256.9481 Q154.1475,256.9481 153.46,258.0263 Q152.7725,259.0888 152.7725,261.1825 Q152.7725,263.2763 153.46,264.3544 Q154.1475,265.4169 155.4913,265.4169 Q156.1163,265.4169 156.71,265.1513 Q157.3038,264.87 157.9288,264.2919 L157.9288,267.0106 Z " fill="#000000"/><text fill="#000000" font-family="sans-serif" font-size="14" lengthAdjust="spacing" textLength="72.249" x="168.96" y="266.2167">BmpSaver</text><line style="stroke:#181818;stroke-width:0.5;" x1="140.96" x2="243.209" y1="277.37" y2="277.37"/><text fill="#000000" font-family="sans-serif" font-size="14" lengthAdjust="spacing" textLength="13.3506" x="145.96" y="294.3651">...</text><line style="stroke:#181818;stroke-width:0.5;" x1="140.96" x2="243.209" y1="301.6669" y2="301.6669"/></g><!--reverse link Shape to Circle--><g class="link" data-entity-1="Shape" data-entity-2="Circle" data-source-line="80" data-uid="lnk12" id="link_Shape_Circle"><path codeLine="80" d="M467.7695,334.778 C424.5495,356.248 390.48,374.84 347.09,402.26 C337.27,408.47 327.25,415.27 317.38,422.27 " fill="none" id="Shape-backto-Circle" style="stroke:#181818;stroke-width:1;stroke-dasharray:7.0,7.0;"/><polygon fill="none" points="483.89,326.77,465.1001,329.4045,470.4388,340.1516,483.89,326.77" style="stroke:#181818;stroke-width:1;"/></g><!--reverse link Shape to Rectangle--><g class="link" data-entity-1="Shape" data-entity-2="Rectangle" data-source-line="81" data-uid="lnk13" id="link_Shape_Rectangle"><path codeLine="81" d="M542.6652,358.453 C528.7752,383.443 521.54,396.46 507.26,422.17 " fill="none" id="Shape-backto-Rectangle" style="stroke:#181818;stroke-width:1;stroke-dasharray:7.0,7.0;"/><polygon fill="none" points="551.41,342.72,537.4209,355.5381,547.9096,361.368,551.41,342.72" style="stroke:#181818;stroke-width:1;"/></g><!--reverse link Shape to CompositeShape--><g class="link" data-entity-1="Shape" data-entity-2="CompositeShape" data-source-line="82" data-uid="lnk14" id="link_Shape_CompositeShape"><path codeLine="82" d="M619.5109,358.7381 C629.0709,377.3881 632.2,382.12 643.72,402.13 " fill="none" id="Shape-backto-CompositeShape" style="stroke:#181818;stroke-width:1;stroke-dasharray:7.0,7.0;"/><polygon fill="none" points="611.3,342.72,614.1715,361.4751,624.8503,356.0012,611.3,342.72" style="stroke:#181818;stroke-width:1;"/></g><!--reverse link CompositeShape to Shape--><g class="link" data-entity-1="CompositeShape" data-entity-2="Shape" data-source-line="84" data-uid="lnk15" id="link_CompositeShape_Shape"><path codeLine="84" d="M663.9937,391.5898 C653.1037,371.5798 646.91,361.37 635.53,342.72 " fill="none" id="CompositeShape-backto-Shape" style="stroke:#181818;stroke-width:1;"/><polygon fill="#181818" points="669.73,402.13,670.3753,394.9478,663.9937,391.5898,663.3485,398.772,669.73,402.13" style="stroke:#181818;stroke-width:1;"/></g><!--reverse link ShapeContainer to Shape--><g class="link" data-entity-1="ShapeContainer" data-entity-2="Shape" data-source-line="87" data-uid="lnk16" id="link_ShapeContainer_Shape"><path codeLine="87" d="M587.09,165.18 C587.09,184.66 587.09,193.6 587.09,212.59 " fill="none" id="ShapeContainer-backto-Shape" style="stroke:#181818;stroke-width:1;"/><polygon fill="#181818" points="587.09,153.18,583.09,159.18,587.09,165.18,591.09,159.18,587.09,153.18" style="stroke:#181818;stroke-width:1;"/></g><!--reverse link ShapeVisitor to SvgSaver--><g class="link" data-entity-1="ShapeVisitor" data-entity-2="SvgSaver" data-source-line="90" data-uid="lnk17" id="link_ShapeVisitor_SvgSaver"><path codeLine="90" d="M101.5414,145.7526 C88.9614,181.9526 77.95,213.62 67.03,245.04 " fill="none" id="ShapeVisitor-backto-SvgSaver" style="stroke:#181818;stroke-width:1;stroke-dasharray:7.0,7.0;"/><polygon fill="none" points="107.45,128.75,95.8738,143.783,107.2089,147.7221,107.45,128.75" style="stroke:#181818;stroke-width:1;"/></g><!--reverse link ShapeVisitor to BmpSaver--><g class="link" data-entity-1="ShapeVisitor" data-entity-2="BmpSaver" data-source-line="91" data-uid="lnk18" id="link_ShapeVisitor_BmpSaver"><path codeLine="91" d="M146.6328,145.7511 C159.2228,181.9511 170.23,213.62 181.15,245.04 " fill="none" id="ShapeVisitor-backto-BmpSaver" style="stroke:#181818;stroke-width:1;stroke-dasharray:7.0,7.0;"/><polygon fill="none" points="140.72,128.75,140.9658,147.7221,152.2999,143.7802,140.72,128.75" style="stroke:#181818;stroke-width:1;"/></g><!--SRC=[pLN1Qjj04BthA_QKIARo1vZGGmCvXwRqMhRorXNOaf24IMaBjjEMWWFfiHGAFVG3dDYEvRXMVs7sZpgpAxbQLxZEeL23iNPcFJFllPdH8OFFi9OZcCk1V0TpMCeXWnciv1M3dv3B8Nf6aD4DPRJFNl98FFKJFmrZn_A3LCGlk2TOrSvUMmm_VJhPNXWaAJlsOwyh3fm_78-5b_AWK-ix3djHY4UXWkE5jvRbTNcIiDCGCnTfcitcRmU5C-tM8ODFS2s7SYG7C84xnBAMOrWokCRZ0dAuqSSxMC44xsqOG4OocCeBER3uyoIDESRMQLH1HHxkUI9AxOJtHTnY9Z_axuLzOKSjXXK_OErNwg7YqL0re0CMQKz7f2SnxmdRQIb8okXrmq1PL8u6WKDiNn306b4Db5A4R5ufN8uBOhG0HSc8UeQ2BkGbWnl4_14oadjEGU07VjSwqFxuskTr07V3q2KrT4Kv2OHwhEIbplsC2a5J3ZCvjXrJOjKn_nMOJLNtm8FgVI-5WecB3PZZ9HmxX8GZnsmyvN1BVsCuYJdXn9kt2794Q6UexmLCCOGfkLDgRinFGLT2pqcBzR7WC3xIlVJm_aowhlkFsyEeNjFAssrriXMASX8Sew1zgLU3enRR4e4XoEgyLyRyE0nIxWSYteF0R9yMt84X5aINTlj1Mvp_ZIsY_KbuudT5lG8xTWJLXYGXv0MM_05_CzLbyhtQasjLTYQlIYxwdJFAKBTr7_MY6Xzb_aeR5PFCiRDouePY6krAUeqgknY_KyWhsnWcbkxVepVDPh4qgfRDv1dNZEQnhArHQBWkApprdL2TDXf5OwDkjOKPxDishVGgpRPViZ0nXBACrwT2KF9Tuohf_WK0]--></g></svg>